<?xml version="1.0" standalone="no"?>
<!DOCTYPE svg PUBLIC "-//W3C//DTD SVG 20010904//EN"
 "http://www.w3.org/TR/2001/REC-SVG-20010904/DTD/svg10.dtd">
<svg version="1.0" xmlns="http://www.w3.org/2000/svg"
 width="424.000000pt" height="419.000000pt" viewBox="0 0 424.000000 419.000000"
 preserveAspectRatio="xMidYMid meet">

<g transform="translate(0.000000,419.000000) scale(0.100000,-0.100000)"
fill="#000000" stroke="none">
<path d="M2124 3730 c-164 -35 -425 -136 -521 -201 -150 -101 -389 -316 -467
-420 -24 -32 -52 -82 -61 -110 -23 -69 -45 -163 -35 -152 4 4 42 53 83 108
134 178 305 332 478 429 138 78 447 192 466 172 4 -3 -1 -6 -11 -6 -32 0 -362
-137 -353 -147 2 -2 33 10 68 26 126 57 291 99 452 115 62 7 76 -6 30 -27 -40
-17 -56 -34 -40 -40 6 -3 0 -6 -14 -6 -32 -1 -141 -23 -136 -27 2 -2 52 3 113
11 60 8 155 15 211 15 66 0 104 4 109 12 5 8 -4 10 -33 6 -22 -3 -47 -1 -54 4
-16 11 166 3 221 -10 l35 -9 -45 -11 -45 -11 55 5 c36 3 50 2 41 -4 -10 -7 -5
-12 20 -17 178 -35 452 -170 548 -269 19 -19 39 -32 44 -29 6 3 7 2 4 -4 -3
-5 17 -32 44 -59 28 -27 73 -77 101 -112 27 -34 55 -59 60 -55 7 3 8 1 4 -6
-4 -6 2 -24 13 -40 20 -28 23 -29 123 -30 56 -1 104 -4 106 -5 2 -2 3 -137 2
-300 -1 -495 -32 -874 -79 -980 -40 -90 -123 -151 -222 -163 -34 -4 -62 -15
-86 -35 -23 -18 -40 -25 -46 -19 -6 6 -19 -8 -34 -40 -34 -68 -171 -213 -188
-199 -9 8 -14 6 -18 -4 -3 -8 -40 -38 -82 -66 -42 -28 -79 -58 -82 -66 -3 -8
-11 -14 -18 -14 -6 0 -30 -20 -53 -45 -44 -49 -53 -52 -74 -31 -12 11 -27 9
-99 -15 -46 -16 -105 -29 -130 -29 -32 0 -49 -5 -52 -14 -3 -8 -20 -22 -38
-32 -28 -14 -58 -16 -223 -11 -338 9 -524 73 -851 293 -181 121 -275 193 -423
324 -56 51 -102 88 -102 83 0 -10 45 -89 90 -161 26 -41 35 -67 38 -113 2 -32
8 -59 13 -59 5 0 9 7 9 15 0 8 4 15 9 15 11 0 51 -53 51 -68 0 -5 16 -24 35
-41 l35 -31 -25 -6 -25 -6 25 -20 c14 -11 39 -43 55 -72 l30 -51 0 33 c0 50
18 36 72 -54 27 -43 48 -73 48 -66 0 7 22 -5 49 -25 28 -21 62 -46 76 -57 18
-12 25 -25 22 -37 -4 -15 0 -19 21 -19 15 0 33 -4 41 -9 11 -7 9 -10 -8 -16
-32 -10 -25 -21 22 -34 129 -39 178 -80 95 -82 l-43 0 40 -15 c22 -9 59 -16
83 -17 38 -2 46 2 75 35 32 38 52 45 122 40 29 -3 29 -3 10 -18 -19 -15 -19
-15 10 -9 17 3 40 8 53 11 13 3 34 -4 51 -17 25 -18 32 -19 52 -8 18 9 74 12
209 10 146 -1 194 1 229 14 26 9 78 15 130 15 76 0 131 8 181 27 12 4 11 7 -5
13 -15 6 -8 9 30 15 28 4 109 20 180 36 72 15 158 31 192 35 36 4 60 11 57 16
-8 13 62 84 111 113 22 13 58 28 80 34 37 10 121 68 112 78 -3 2 -22 -7 -42
-22 -55 -37 -65 -31 -16 11 26 22 54 62 74 102 18 37 54 89 82 117 89 88 219
337 288 550 56 172 72 240 88 375 13 120 8 498 -8 509 -6 3 -13 29 -17 56 -9
59 -96 271 -106 255 -9 -14 -25 6 -83 101 -49 79 -54 98 -36 116 13 13 -44 63
-74 63 -28 0 -41 9 -57 40 -23 44 -78 106 -135 151 -54 43 -73 75 -37 62 9 -3
14 -3 10 1 -4 5 -33 18 -65 30 -32 11 -128 58 -213 103 -169 89 -323 147 -507
189 -103 24 -142 28 -313 31 -164 2 -209 -1 -286 -17z m159 -247 c-7 -2 -21
-2 -30 0 -10 3 -4 5 12 5 17 0 24 -2 18 -5z m434 -39 c-3 -3 -12 -4 -19 -1 -8
3 -5 6 6 6 11 1 17 -2 13 -5z m715 -449 c36 -46 17 -28 -72 70 -60 65 -61 66
-11 20 29 -27 66 -68 83 -90z m49 -62 c13 -16 12 -17 -3 -4 -17 13 -22 21 -14
21 2 0 10 -8 17 -17z"/>
<path d="M2535 3470 l-40 -7 35 -1 c19 -1 42 3 50 8 16 11 14 11 -45 0z"/>
<path d="M2028 3433 c7 -3 16 -2 19 1 4 3 -2 6 -13 5 -11 0 -14 -3 -6 -6z"/>
<path d="M3276 3079 c4 -8 -1 -9 -17 -4 -21 7 -22 6 -11 -8 11 -13 17 -14 32
-5 19 12 18 28 -1 28 -6 0 -7 -5 -3 -11z"/>
<path d="M1340 3071 c0 -5 7 -11 15 -15 23 -8 18 -26 -7 -26 -29 0 -8 -23 24
-25 39 -3 33 -25 -7 -25 -24 0 -34 -4 -29 -11 4 -7 22 -9 45 -6 53 7 57 -15 5
-30 l-41 -11 35 -1 c19 -1 45 -4 58 -7 27 -8 30 11 5 39 -17 18 -17 19 1 33
18 13 18 14 2 20 -10 4 -21 2 -26 -5 -5 -10 -9 -9 -13 3 -4 9 -2 16 3 16 6 0
10 5 10 10 0 6 -7 10 -15 10 -8 0 -19 9 -25 20 -11 20 -40 28 -40 11z"/>
<path d="M2484 3055 c3 -21 13 -28 30 -22 9 4 13 13 10 22 -8 19 -43 20 -40 0z"/>
<path d="M3207 3046 c4 -22 0 -26 -37 -37 -30 -9 -37 -15 -26 -21 8 -4 26 -4
40 2 25 9 26 8 26 -30 0 -33 -3 -40 -19 -40 -48 0 -69 -30 -33 -49 12 -6 25
-5 42 5 33 18 45 18 30 -1 -11 -13 -8 -15 18 -15 42 0 49 17 14 37 -29 17 -30
20 -23 101 1 6 8 12 16 12 8 0 15 5 15 10 0 6 -6 10 -14 10 -7 0 -16 9 -19 20
-8 30 -35 26 -30 -4z m-12 -146 c-3 -5 -15 -10 -26 -10 -11 0 -17 5 -14 10 3
6 15 10 26 10 11 0 17 -4 14 -10z"/>
<path d="M1671 3034 c11 -14 9 -19 -11 -35 -33 -25 -35 -24 -48 14 -11 31 -12
31 -6 -12 3 -31 0 -49 -11 -61 -8 -9 -13 -25 -9 -34 7 -18 39 -22 49 -6 3 6
15 10 26 10 16 0 19 5 14 20 -8 27 22 83 41 76 9 -3 17 -6 19 -6 3 0 9 -9 15
-19 14 -27 -2 -60 -43 -88 -39 -28 -20 -30 33 -3 47 24 60 58 36 94 -8 13 -29
27 -45 31 -16 3 -32 13 -35 21 -3 8 -13 14 -22 14 -14 0 -14 -2 -3 -16z m-11
-64 c-6 -11 -16 -17 -22 -14 -7 5 -5 12 7 21 25 18 28 17 15 -7z m-39 -53
c-13 -13 -26 -3 -16 12 3 6 11 8 17 5 6 -4 6 -10 -1 -17z"/>
<path d="M3075 2975 c-7 -81 -1 -115 21 -115 10 0 14 13 13 48 0 35 -3 42 -9
27 -5 -13 -7 3 -3 41 3 37 2 64 -5 67 -6 4 -12 -22 -17 -68z"/>
<path d="M2434 3010 c5 -28 3 -30 -24 -30 -17 0 -30 -4 -30 -9 0 -14 35 -23
63 -16 23 6 28 1 54 -54 31 -67 43 -76 43 -33 0 18 -13 44 -36 70 l-35 42 33
20 c39 24 88 27 88 5 0 -18 -31 -35 -67 -36 l-28 0 25 -10 c38 -16 89 -2 102
27 8 18 8 28 1 35 -16 16 -87 13 -122 -5 -16 -9 -35 -16 -41 -16 -14 0 -13 27
3 33 6 3 1 6 -12 6 -21 1 -23 -2 -17 -29z"/>
<path d="M2741 2984 c14 -74 39 -104 88 -104 18 0 21 6 21 43 l-1 42 -15 -27
c-26 -49 -64 -25 -64 41 0 19 -7 34 -19 40 -17 10 -18 7 -10 -35z"/>
<path d="M2223 3014 c-7 -3 -10 -11 -7 -19 6 -15 -12 -55 -26 -55 -5 0 -11 8
-13 18 -4 13 -5 13 -6 -4 0 -12 6 -27 14 -34 12 -10 18 -6 35 22 11 18 19 41
16 51 -5 21 17 22 38 1 21 -21 20 -27 -10 -63 -14 -17 -21 -31 -14 -31 14 0
60 46 60 60 0 16 -47 60 -62 59 -7 0 -18 -3 -25 -5z"/>
<path d="M2909 2999 c23 -21 23 -23 5 -36 -15 -11 -15 -13 -2 -13 9 0 23 -3
31 -6 22 -8 28 22 9 45 -9 10 -28 22 -42 26 l-25 7 24 -23z"/>
<path d="M1940 2990 c-19 -11 -43 -19 -52 -20 -24 0 -23 -17 2 -25 14 -4 32 3
59 24 43 34 85 40 95 15 9 -24 -20 -63 -57 -79 -30 -13 -31 -14 -7 -15 14 0
39 9 57 19 96 59 4 136 -97 81z"/>
<path d="M1330 2902 c0 -26 27 -42 70 -42 43 0 34 24 -11 28 -19 2 -40 10 -46
19 -12 15 -13 15 -13 -5z"/>
<path d="M2630 2695 l0 -105 209 0 209 0 -5 -47 c-7 -83 -24 -178 -33 -193 -7
-12 -21 -9 -82 19 -110 50 -229 98 -263 105 l-30 6 25 -20 c14 -12 70 -54 125
-94 55 -41 120 -92 144 -115 41 -38 43 -43 39 -83 -3 -24 -21 -83 -41 -131
-76 -186 -229 -369 -405 -482 -129 -83 -125 -100 10 -41 232 101 397 264 500
492 18 40 39 74 45 74 16 0 52 -58 82 -130 35 -84 48 -100 79 -100 16 0 37 6
48 14 28 21 25 116 -5 176 -25 47 -104 151 -140 184 -26 24 -26 29 1 214 l23
152 162 0 163 0 0 -237 c0 -430 -23 -640 -75 -692 -28 -28 -104 -39 -172 -23
-52 12 -51 17 -20 -128 l23 -105 100 0 c161 0 252 50 294 162 43 116 67 392
77 911 l6 322 -546 0 -547 0 0 -105z"/>
<path d="M1606 2729 c22 -24 51 -59 63 -76 27 -40 58 -43 71 -7 21 55 -32 104
-130 119 l-45 7 41 -43z"/>
<path d="M690 2710 c-26 -95 -16 -90 -167 -90 l-133 0 0 -337 0 -338 125 3
c148 4 144 7 127 -109 -21 -149 -95 -322 -192 -450 -68 -91 -198 -212 -308
-287 -51 -35 -92 -70 -92 -78 0 -20 13 -18 73 12 173 87 347 237 442 379 65
98 105 184 146 318 20 65 41 112 58 130 l26 29 -27 23 c-16 13 -28 27 -28 30
0 3 30 5 68 3 l67 -3 5 -225 c7 -327 -6 -315 345 -315 233 0 241 1 277 23 39
24 98 125 98 167 0 12 -15 35 -34 51 -29 26 -34 38 -40 97 -4 37 -11 69 -16
72 -4 2 -10 -19 -14 -48 -10 -76 -25 -118 -54 -149 -25 -27 -28 -28 -140 -28
-129 0 -187 13 -209 47 -22 33 -27 130 -13 222 l12 81 219 0 219 0 0 267 c0
288 0 287 49 196 30 -53 42 -61 65 -38 38 39 5 102 -69 131 l-45 17 0 53 0 54
-300 0 c-165 0 -300 2 -300 5 0 18 26 54 42 58 13 4 18 12 16 24 -4 19 -31 24
-200 37 l-87 7 -11 -41z m224 -226 c18 -18 22 -128 6 -154 -8 -12 -38 -15
-169 -15 -88 0 -163 4 -167 8 -5 4 -8 42 -8 83 0 55 3 78 14 84 8 6 81 10 162
10 120 0 149 -3 162 -16z m457 -1 c18 -21 19 -137 1 -155 -16 -16 -250 -24
-302 -11 l-35 9 -3 74 c-2 62 0 77 14 87 13 9 62 13 165 13 124 0 149 -3 160
-17z m-455 -216 c14 -13 17 -133 5 -156 -11 -20 -19 -21 -170 -21 -182 0 -171
-7 -171 100 0 55 4 71 18 80 20 12 306 10 318 -3z m443 3 c24 -13 35 -87 21
-139 l-11 -41 -157 0 c-110 0 -162 4 -170 12 -13 13 -17 136 -4 154 4 6 14 14
22 17 26 10 280 7 299 -3z"/>
<path d="M2171 2683 c5 -21 9 -55 9 -75 l0 -38 -195 0 -195 0 0 -212 c0 -267
-20 -401 -77 -511 -8 -16 -13 -30 -11 -31 17 -13 142 -65 148 -61 21 13 80
222 80 288 0 33 3 37 25 37 37 0 50 39 34 105 l-13 50 -14 -48 c-7 -27 -16
-47 -18 -45 -2 3 -1 46 2 96 l7 92 112 0 112 0 6 -52 c7 -60 4 -67 -21 -45
-25 23 -28 22 -42 -15 -31 -77 -52 -69 -39 14 5 29 7 53 5 55 -2 2 -19 6 -37
9 l-34 6 3 -116 c4 -137 -8 -185 -69 -264 l-40 -54 31 19 c35 20 78 70 104
121 22 42 34 40 53 -8 17 -44 47 -54 58 -20 9 29 -11 57 -50 70 -29 10 -35 16
-35 40 0 16 7 36 16 45 19 19 94 58 100 52 2 -2 11 -42 20 -90 l16 -86 -36
-43 c-20 -24 -61 -63 -91 -87 -51 -40 -66 -61 -47 -61 4 0 31 -18 60 -41 51
-38 55 -39 77 -25 13 8 49 44 80 79 l57 64 62 -63 c64 -66 108 -87 131 -63 12
12 12 24 -2 76 l-15 63 -20 -25 c-24 -30 -37 -25 -78 31 l-32 45 45 97 c24 53
55 129 67 167 13 39 30 75 39 82 11 8 13 15 6 21 -16 15 -138 53 -146 45 -3
-5 -15 -42 -25 -83 l-18 -75 -7 45 c-4 25 -8 73 -8 108 l-1 62 100 0 100 0 0
70 c0 67 -1 70 -24 70 -19 0 -27 8 -36 35 -13 40 -71 85 -109 85 -22 0 -23 -1
-9 -17 19 -22 48 -78 48 -93 0 -6 -28 -10 -70 -10 l-70 0 0 44 c0 25 5 48 10
51 31 19 -18 55 -75 55 -21 0 -22 -3 -14 -37z m2 -285 c2 -18 3 -35 1 -37 -2
-3 -18 9 -35 25 l-31 29 -23 -27 c-21 -24 -31 -28 -80 -28 l-55 0 0 35 0 35
109 0 109 0 5 -32z"/>
<path d="M1756 2493 c-4 -10 -34 -121 -67 -248 -33 -126 -72 -255 -87 -285
-24 -49 -31 -56 -70 -65 l-43 -11 32 -9 c44 -14 68 -50 76 -114 7 -60 32 -95
60 -84 37 14 43 56 17 119 -20 47 -16 79 32 346 59 327 65 361 61 365 -3 2 -8
-4 -11 -14z"/>
<path d="M2612 2247 c-81 -30 -142 -111 -142 -192 0 -91 68 -169 125 -143 32
15 81 112 96 193 16 85 16 84 38 78 58 -15 87 -102 53 -162 -15 -29 -57 -61
-95 -74 -10 -3 24 -67 36 -67 4 0 26 9 48 20 105 54 142 207 72 291 -52 61
-150 85 -231 56z m54 -104 c-13 -100 -85 -203 -121 -173 -24 20 -28 72 -9 119
18 46 82 101 117 101 18 0 19 -5 13 -47z"/>
<path d="M1240 1903 c0 -31 -33 -164 -45 -183 -5 -8 -22 -10 -48 -7 l-39 5 5
-40 c7 -53 21 -67 50 -49 17 11 161 50 189 51 3 0 11 -13 17 -30 11 -34 30
-38 54 -12 36 40 4 112 -65 148 l-30 16 7 -34 c4 -18 8 -37 9 -43 0 -5 -25
-11 -56 -13 -32 -2 -58 1 -58 5 0 19 72 122 95 137 14 9 25 20 25 24 0 9 -84
52 -100 52 -6 0 -10 -12 -10 -27z"/>
</g>
</svg>
